<?xml version="1.0" encoding="utf-8"?>
<!-- Generator: Adobe Illustrator 28.3.0, SVG Export Plug-In . SVG Version: 6.00 Build 0)  -->
<svg version="1.1" id="katman_1" xmlns="http://www.w3.org/2000/svg" xmlns:xlink="http://www.w3.org/1999/xlink" x="0px" y="0px"
	 viewBox="0 0 595.3 841.9" style="enable-background:new 0 0 595.3 841.9;" xml:space="preserve">
<style type="text/css">
	.st0{fill:#FFFFFF;}
	.st1{fill:#FFFFFF;stroke:#000000;stroke-width:0.25;stroke-miterlimit:10;}
</style>
<g>
	<rect x="70.7" y="66.5" class="st0" width="453.8" height="708.9"/>
	<path d="M524.4,66.6v708.7H70.9V66.6H524.4 M524.7,66.4h-0.2H70.9h-0.2v0.2v708.7v0.2h0.2h453.5h0.2v-0.2V66.6V66.4L524.7,66.4z"/>
</g>
<rect x="70.5" y="152" class="st1" width="56.7" height="104.9"/>
<rect x="467.7" y="152" class="st1" width="56.7" height="104.9"/>
<rect x="467.7" y="585.4" class="st1" width="56.7" height="104.9"/>
<rect x="70.5" y="585.4" class="st1" width="56.7" height="104.9"/>
<rect x="207" y="194.2" class="st1" width="175.7" height="260.8"/>
<g>
	<circle cx="240.9" cy="633.6" r="2.2"/>
	<path d="M240.9,631.6c1.1,0,2,0.9,2,2c0,1.1-0.9,2-2,2s-2-0.9-2-2C238.9,632.5,239.8,631.6,240.9,631.6 M240.9,631.3
		c-1.3,0-2.3,1-2.3,2.3c0,1.3,1,2.3,2.3,2.3s2.3-1,2.3-2.3C243.2,632.3,242.2,631.3,240.9,631.3L240.9,631.3z"/>
</g>
<g>
	<circle cx="345.8" cy="633.6" r="2.2"/>
	<path d="M345.8,631.6c1.1,0,2,0.9,2,2c0,1.1-0.9,2-2,2c-1.1,0-2-0.9-2-2C343.8,632.5,344.7,631.6,345.8,631.6 M345.8,631.3
		c-1.3,0-2.3,1-2.3,2.3c0,1.3,1,2.3,2.3,2.3s2.3-1,2.3-2.3C348.1,632.3,347.1,631.3,345.8,631.3L345.8,631.3z"/>
</g>
<g>
	<path d="M345.8,531c-1.2,0-2.2-1-2.2-2.2s1-2.2,2.2-2.2s2.2,1,2.2,2.2S347,531,345.8,531z"/>
	<path d="M345.8,526.8c1.1,0,2,0.9,2,2c0,1.1-0.9,2-2,2c-1.1,0-2-0.9-2-2C343.8,527.7,344.7,526.8,345.8,526.8 M345.8,526.6
		c-1.3,0-2.3,1-2.3,2.3s1,2.3,2.3,2.3s2.3-1,2.3-2.3S347.1,526.6,345.8,526.6L345.8,526.6z"/>
</g>
<g>
	<path d="M240.9,531c-1.2,0-2.2-1-2.2-2.2s1-2.2,2.2-2.2s2.2,1,2.2,2.2S242.1,531,240.9,531z"/>
	<path d="M240.9,526.8c1.1,0,2,0.9,2,2c0,1.1-0.9,2-2,2c-1.1,0-2-0.9-2-2C238.9,527.7,239.8,526.8,240.9,526.8 M240.9,526.6
		c-1.3,0-2.3,1-2.3,2.3s1,2.3,2.3,2.3s2.3-1,2.3-2.3S242.2,526.6,240.9,526.6L240.9,526.6z"/>
</g>
</svg>
